<mxfile modified="2023-06-21T08:36:07.025Z" host="app.diagrams.net" agent="Mozilla/5.0 (Windows NT 10.0; Win64; x64) AppleWebKit/537.36 (KHTML, like Gecko) Chrome/114.0.0.0 Safari/537.36" etag="W8WZdtR8WNUgh_5SGtEs" version="21.5.0" type="github" pages="2">
  <diagram name="Version 1" id="_vSKsFEWr8GgEi4D4t2r">
    <mxGraphModel dx="3372" dy="1123" grid="1" gridSize="10" guides="1" tooltips="1" connect="1" arrows="1" fold="1" page="1" pageScale="1" pageWidth="1169" pageHeight="827" background="none" math="0" shadow="0">
      <root>
        <mxCell id="RsTMZp-gRHyhhhqacSFY-0" />
        <mxCell id="RsTMZp-gRHyhhhqacSFY-1" parent="RsTMZp-gRHyhhhqacSFY-0" />
        <mxCell id="RsTMZp-gRHyhhhqacSFY-2" value="" style="rounded=0;whiteSpace=wrap;html=1;shadow=0;labelBackgroundColor=none;strokeColor=none;strokeWidth=3;fillColor=#e8edf0;fontSize=60;fontColor=#2F5B7C;align=left;" parent="RsTMZp-gRHyhhhqacSFY-1" vertex="1">
          <mxGeometry x="-2280" y="32" width="2250" height="1598" as="geometry" />
        </mxCell>
        <mxCell id="RsTMZp-gRHyhhhqacSFY-3" value="&lt;div style=&quot;font-size: 26px&quot;&gt;&lt;font style=&quot;font-size: 26px&quot;&gt;Customer Relationships&lt;/font&gt;&lt;/div&gt;&lt;div&gt;&lt;br&gt;&lt;/div&gt;&lt;div&gt;&lt;div&gt;&lt;ul&gt;&lt;li&gt;&lt;font style=&quot;font-size: 16px;&quot;&gt;Establishing trust and credibility through expertise and successful track record.&lt;/font&gt;&lt;/li&gt;&lt;/ul&gt;&lt;div&gt;&lt;span style=&quot;font-size: 14px;&quot;&gt;&lt;br&gt;&lt;/span&gt;&lt;/div&gt;&lt;ul&gt;&lt;li&gt;&lt;font size=&quot;3&quot;&gt;Building long-term relationships with clients based on consistent delivery of high-quality services.&lt;/font&gt;&lt;/li&gt;&lt;/ul&gt;&lt;div&gt;&lt;font size=&quot;3&quot;&gt;&lt;br&gt;&lt;/font&gt;&lt;/div&gt;&lt;ul&gt;&lt;li&gt;&lt;font size=&quot;3&quot;&gt;Providing personalized consultation and guidance throughout the grant application process.&lt;/font&gt;&lt;/li&gt;&lt;/ul&gt;&lt;/div&gt;&lt;/div&gt;&lt;div&gt;&lt;br&gt;&lt;/div&gt;" style="rounded=0;whiteSpace=wrap;html=1;shadow=0;labelBackgroundColor=none;strokeColor=#e8edf0;strokeWidth=5;fillColor=#ffffff;fontSize=12;fontColor=#2F5B7C;align=left;verticalAlign=top;spacing=30;" parent="RsTMZp-gRHyhhhqacSFY-1" vertex="1">
          <mxGeometry x="-950" y="220" width="420" height="450" as="geometry" />
        </mxCell>
        <mxCell id="RsTMZp-gRHyhhhqacSFY-4" value="&lt;font&gt;&lt;font style=&quot;font-size: 26px&quot;&gt;Key Partners&lt;/font&gt;&lt;br&gt;&lt;/font&gt;&lt;font style=&quot;font-size: 12px&quot;&gt;&lt;br style=&quot;font-size: 12px&quot;&gt;&lt;br&gt;&lt;/font&gt;&lt;div style=&quot;&quot;&gt;&lt;div style=&quot;&quot;&gt;&lt;ul&gt;&lt;li&gt;&lt;font style=&quot;font-size: 16px;&quot;&gt;Collaboration with research organizations and institutions for joint grant applications.&lt;/font&gt;&lt;/li&gt;&lt;/ul&gt;&lt;ul&gt;&lt;li&gt;&lt;font size=&quot;3&quot;&gt;Partnerships with subject-matter experts for domain-specific knowledge and input.&lt;/font&gt;&lt;/li&gt;&lt;/ul&gt;&lt;ul&gt;&lt;li&gt;&lt;font size=&quot;3&quot;&gt;Networking with grant funding agencies and industry professionals.&lt;/font&gt;&lt;/li&gt;&lt;/ul&gt;&lt;/div&gt;&lt;div style=&quot;font-size: 12px;&quot;&gt;&lt;br&gt;&lt;/div&gt;&lt;/div&gt;" style="rounded=0;whiteSpace=wrap;html=1;shadow=0;labelBackgroundColor=none;strokeColor=#e8edf0;strokeWidth=5;fillColor=#ffffff;fontSize=12;fontColor=#2F5B7C;align=left;verticalAlign=top;spacing=30;" parent="RsTMZp-gRHyhhhqacSFY-1" vertex="1">
          <mxGeometry x="-2210" y="220" width="420" height="900" as="geometry" />
        </mxCell>
        <mxCell id="RsTMZp-gRHyhhhqacSFY-5" value="&lt;font&gt;&lt;font style=&quot;font-size: 26px&quot;&gt;Key Activities&lt;/font&gt;&lt;br style=&quot;font-size: 12px&quot;&gt;&lt;/font&gt;&lt;font&gt;&lt;br style=&quot;font-size: 12px&quot;&gt;&lt;div&gt;&lt;div&gt;&lt;ul&gt;&lt;li&gt;&lt;font style=&quot;font-size: 16px;&quot;&gt;Analyzing Horizon Europe call requirements and guidelines.&lt;/font&gt;&lt;/li&gt;&lt;/ul&gt;&lt;ul&gt;&lt;li&gt;&lt;font style=&quot;font-size: 16px;&quot;&gt;Collaborating with clients to understand their research objectives and project goals.&lt;/font&gt;&lt;/li&gt;&lt;/ul&gt;&lt;ul&gt;&lt;li&gt;&lt;font style=&quot;font-size: 16px;&quot;&gt;Utilizing ChatGPT and other tools to generate innovative solution ideas.&lt;/font&gt;&lt;/li&gt;&lt;/ul&gt;&lt;ul&gt;&lt;li&gt;&lt;font size=&quot;3&quot;&gt;Developing grant proposals and ensuring alignment with call requirements.&lt;/font&gt;&lt;/li&gt;&lt;/ul&gt;&lt;ul&gt;&lt;li&gt;&lt;font size=&quot;3&quot;&gt;Reviewing and editing grant applications for clarity, coherence, and persuasiveness.&lt;/font&gt;&lt;/li&gt;&lt;/ul&gt;&lt;/div&gt;&lt;/div&gt;&lt;div&gt;&lt;br&gt;&lt;/div&gt;&lt;/font&gt;" style="rounded=0;whiteSpace=wrap;html=1;shadow=0;labelBackgroundColor=none;strokeColor=#e8edf0;strokeWidth=5;fillColor=#ffffff;fontSize=12;fontColor=#2F5B7C;align=left;verticalAlign=top;spacing=30;" parent="RsTMZp-gRHyhhhqacSFY-1" vertex="1">
          <mxGeometry x="-1790" y="220" width="420" height="450" as="geometry" />
        </mxCell>
        <mxCell id="RsTMZp-gRHyhhhqacSFY-6" value="&lt;div&gt;&lt;font style=&quot;font-size: 26px&quot;&gt;Key Resources&lt;/font&gt;&lt;/div&gt;&lt;div&gt;&lt;br&gt;&lt;/div&gt;&lt;div&gt;&lt;div&gt;&lt;ul&gt;&lt;li&gt;&lt;font style=&quot;font-size: 16px;&quot;&gt;Expertise in Horizon Europe programs and call requirements.&lt;/font&gt;&lt;/li&gt;&lt;/ul&gt;&lt;div&gt;&lt;span style=&quot;font-size: 16px;&quot;&gt;&lt;br&gt;&lt;/span&gt;&lt;/div&gt;&lt;ul&gt;&lt;li&gt;&lt;font size=&quot;3&quot;&gt;Access to ChatGPT or similar AI tools for generating potential solution ideas.&lt;/font&gt;&lt;/li&gt;&lt;/ul&gt;&lt;div&gt;&lt;font size=&quot;3&quot;&gt;&lt;br&gt;&lt;/font&gt;&lt;/div&gt;&lt;ul&gt;&lt;li&gt;&lt;font size=&quot;3&quot;&gt;Knowledge of grant writing best practices.&lt;/font&gt;&lt;/li&gt;&lt;/ul&gt;&lt;div&gt;&lt;font size=&quot;3&quot;&gt;&lt;br&gt;&lt;/font&gt;&lt;/div&gt;&lt;ul&gt;&lt;li&gt;&lt;font size=&quot;3&quot;&gt;Networking and collaborations with industry professionals.&lt;/font&gt;&lt;/li&gt;&lt;/ul&gt;&lt;/div&gt;&lt;/div&gt;" style="rounded=0;whiteSpace=wrap;html=1;shadow=0;labelBackgroundColor=none;strokeColor=#e8edf0;strokeWidth=5;fillColor=#ffffff;fontSize=12;fontColor=#2F5B7C;align=left;verticalAlign=top;spacing=30;" parent="RsTMZp-gRHyhhhqacSFY-1" vertex="1">
          <mxGeometry x="-1790" y="670" width="420" height="450" as="geometry" />
        </mxCell>
        <mxCell id="RsTMZp-gRHyhhhqacSFY-7" value="&lt;div style=&quot;font-size: 26px&quot;&gt;&lt;font style=&quot;font-size: 26px&quot;&gt;Value Propositions&lt;/font&gt;&lt;/div&gt;&lt;div&gt;&lt;div&gt;&lt;br&gt;&lt;/div&gt;&lt;/div&gt;&lt;div&gt;&lt;div&gt;Analyzing call requirements and generating ideas for potential solutions is a critical step in the grant writing process for a variety of reasons:&lt;/div&gt;&lt;div&gt;&lt;ul&gt;&lt;li&gt;&lt;b&gt;Understanding Grant Requirements&lt;/b&gt;: The first and most basic reason is to understand exactly what the grant funder is looking for. Every grant call comes with specific requirements, goals, and objectives that the funder wishes to address. Therefore, you must understand these requirements in depth before you even begin to develop your proposal. This ensures that your proposal aligns with the funder&#39;s objectives, which greatly improves your chances of being awarded the grant.&lt;/li&gt;&lt;li&gt;&lt;b&gt;Generating Relevant Ideas&lt;/b&gt;: Once you have a clear understanding of the grant call requirements, you can start brainstorming potential solutions. This is where creativity and innovation come in. The goal here is to come up with a unique, effective approach to addressing the grant&#39;s objectives. Funders often look for projects that bring fresh perspectives and innovative solutions to the problems they wish to address.&lt;/li&gt;&lt;li&gt;&lt;b&gt;Competitive Advantage&lt;/b&gt;: Understanding the requirements and generating original ideas also give you a competitive advantage. Grant funding is often highly competitive, with many organizations applying for the same funds. By thoroughly analyzing the call requirements and generating novel solutions, you can differentiate your proposal from others.&lt;/li&gt;&lt;li&gt;&lt;b&gt;Budgeting&lt;/b&gt;: Detailed analysis of the call requirements helps in effective budget planning. Some requirements may need more financial resources than others. Understanding this will help you create a more accurate and realistic budget proposal.&lt;/li&gt;&lt;li&gt;&lt;b&gt;Measurable Outcomes&lt;/b&gt;: Your analysis can also help you identify measurable outcomes for your project. This is important as grant funders often want to see concrete results that show how their funds have made a difference.&lt;/li&gt;&lt;/ul&gt;&lt;/div&gt;&lt;div&gt;Remember, the more closely your proposal aligns with the grant call&#39;s objectives, the higher your chances of success. It&#39;s not just about securing the funds; it&#39;s also about proving to the funder that your organization is the best choice for implementing the project and achieving the desired outcomes.&lt;/div&gt;&lt;/div&gt;&lt;div&gt;&lt;br&gt;&lt;/div&gt;" style="rounded=0;whiteSpace=wrap;html=1;shadow=0;labelBackgroundColor=none;strokeColor=#e8edf0;strokeWidth=5;fillColor=#ffffff;fontSize=12;fontColor=#2F5B7C;align=left;verticalAlign=top;spacing=30;" parent="RsTMZp-gRHyhhhqacSFY-1" vertex="1">
          <mxGeometry x="-1370" y="220" width="420" height="900" as="geometry" />
        </mxCell>
        <mxCell id="RsTMZp-gRHyhhhqacSFY-8" value="&lt;div&gt;&lt;font style=&quot;font-size: 26px&quot;&gt;Customer Segments&lt;/font&gt;&lt;/div&gt;&lt;div&gt;&lt;br&gt;&lt;/div&gt;&lt;div&gt;&lt;div&gt;&lt;br&gt;&lt;/div&gt;&lt;ul&gt;&lt;li&gt;&lt;span style=&quot;font-size: medium; background-color: initial;&quot;&gt;&lt;b&gt;Partners for project ideas&lt;/b&gt;. Members registered in FTO Portal&#39;s Partner Search or in Enterprise Europe Network Cooperation Opportunities Database.&lt;/span&gt;&lt;/li&gt;&lt;/ul&gt;&lt;ul&gt;&lt;li&gt;&lt;span style=&quot;font-size: medium; background-color: initial;&quot;&gt;&lt;b&gt;National / Local Contact Points.&lt;/b&gt;&lt;/span&gt;&lt;/li&gt;&lt;/ul&gt;&lt;ul&gt;&lt;li&gt;&lt;b style=&quot;font-size: medium; background-color: initial;&quot;&gt;Participant Categories:&amp;nbsp;&lt;/b&gt;&lt;br&gt;&lt;/li&gt;&lt;ul&gt;&lt;li&gt;&lt;span style=&quot;font-size: medium; background-color: initial;&quot;&gt;Research Institutions&lt;/span&gt;&lt;/li&gt;&lt;li&gt;&lt;span style=&quot;font-size: medium; background-color: initial;&quot;&gt;Non-Profit Organizations&lt;/span&gt;&lt;/li&gt;&lt;li&gt;&lt;span style=&quot;font-size: medium; background-color: initial;&quot;&gt;Startups and SMEs&lt;/span&gt;&lt;/li&gt;&lt;li&gt;&lt;span style=&quot;font-size: medium; background-color: initial;&quot;&gt;Large Corporations&lt;/span&gt;&lt;/li&gt;&lt;li&gt;&lt;span style=&quot;font-size: medium; background-color: initial;&quot;&gt;Public Entities&lt;/span&gt;&lt;/li&gt;&lt;li&gt;&lt;span style=&quot;font-size: medium; background-color: initial;&quot;&gt;Individual Researchers and Innovators&lt;/span&gt;&lt;/li&gt;&lt;/ul&gt;&lt;/ul&gt;&lt;/div&gt;" style="rounded=0;whiteSpace=wrap;html=1;shadow=0;labelBackgroundColor=none;strokeColor=#e8edf0;strokeWidth=5;fillColor=#ffffff;fontSize=12;fontColor=#2F5B7C;align=left;verticalAlign=top;spacing=30;" parent="RsTMZp-gRHyhhhqacSFY-1" vertex="1">
          <mxGeometry x="-530" y="220" width="420" height="900" as="geometry" />
        </mxCell>
        <mxCell id="RsTMZp-gRHyhhhqacSFY-9" value="&lt;div&gt;&lt;font style=&quot;font-size: 26px&quot;&gt;Channels&lt;/font&gt;&lt;/div&gt;&lt;div&gt;&lt;font style=&quot;font-size: 14px;&quot;&gt;&lt;br&gt;&lt;/font&gt;&lt;/div&gt;&lt;div&gt;&lt;div&gt;&lt;ul&gt;&lt;li&gt;&lt;font size=&quot;3&quot;&gt;Online platforms and professional networks targeting researchers and organizations.&lt;/font&gt;&lt;/li&gt;&lt;/ul&gt;&lt;div&gt;&lt;font size=&quot;3&quot;&gt;&lt;br&gt;&lt;/font&gt;&lt;/div&gt;&lt;ul&gt;&lt;li&gt;&lt;font size=&quot;3&quot;&gt;Collaboration with research-focused organizations and institutions.&lt;/font&gt;&lt;/li&gt;&lt;/ul&gt;&lt;div&gt;&lt;font size=&quot;3&quot;&gt;&lt;br&gt;&lt;/font&gt;&lt;/div&gt;&lt;ul&gt;&lt;li&gt;&lt;font size=&quot;3&quot;&gt;Participation in relevant industry events and conferences.&lt;/font&gt;&lt;/li&gt;&lt;/ul&gt;&lt;/div&gt;&lt;/div&gt;&lt;div&gt;&lt;br&gt;&lt;/div&gt;" style="rounded=0;whiteSpace=wrap;html=1;shadow=0;labelBackgroundColor=none;strokeColor=#e8edf0;strokeWidth=5;fillColor=#ffffff;fontSize=12;fontColor=#2F5B7C;align=left;verticalAlign=top;spacing=30;" parent="RsTMZp-gRHyhhhqacSFY-1" vertex="1">
          <mxGeometry x="-950" y="670" width="420" height="450" as="geometry" />
        </mxCell>
        <mxCell id="RsTMZp-gRHyhhhqacSFY-10" value="&lt;div style=&quot;font-size: 26px&quot;&gt;&lt;font style=&quot;font-size: 26px&quot;&gt;Cost Structure&lt;/font&gt;&lt;/div&gt;&lt;div&gt;&lt;br&gt;&lt;/div&gt;&lt;div&gt;&lt;div&gt;&lt;ul&gt;&lt;li&gt;&lt;font style=&quot;font-size: 16px;&quot;&gt;Professional development and continuous learning to stay updated on Horizon Europe programs.&lt;/font&gt;&lt;/li&gt;&lt;/ul&gt;&lt;ul&gt;&lt;li&gt;&lt;font size=&quot;3&quot;&gt;Marketing and promotional activities.&lt;/font&gt;&lt;/li&gt;&lt;/ul&gt;&lt;ul&gt;&lt;li&gt;&lt;font size=&quot;3&quot;&gt;Subscription or licensing fees for AI tools or platforms used in generating solution ideas.&lt;/font&gt;&lt;/li&gt;&lt;/ul&gt;&lt;/div&gt;&lt;/div&gt;" style="rounded=0;whiteSpace=wrap;html=1;shadow=0;labelBackgroundColor=none;strokeColor=#e8edf0;strokeWidth=5;fillColor=#ffffff;fontSize=12;fontColor=#2F5B7C;align=left;verticalAlign=top;spacing=30;" parent="RsTMZp-gRHyhhhqacSFY-1" vertex="1">
          <mxGeometry x="-2210" y="1120" width="1050" height="330" as="geometry" />
        </mxCell>
        <mxCell id="RsTMZp-gRHyhhhqacSFY-11" value="&lt;div style=&quot;font-size: 26px&quot;&gt;&lt;font style=&quot;font-size: 26px&quot;&gt;Revenue Streams&lt;/font&gt;&lt;/div&gt;&lt;div&gt;&lt;br&gt;&lt;/div&gt;&lt;div&gt;&lt;div&gt;&lt;br&gt;&lt;/div&gt;&lt;div&gt;&lt;ul&gt;&lt;li&gt;&lt;font style=&quot;font-size: 16px;&quot;&gt;Consulting fees charged on an hourly basis or project basis.&lt;/font&gt;&lt;/li&gt;&lt;/ul&gt;&lt;ul&gt;&lt;li&gt;&lt;font size=&quot;3&quot;&gt;Potential revenue sharing for successful grant applications.&lt;/font&gt;&lt;/li&gt;&lt;/ul&gt;&lt;ul&gt;&lt;li&gt;&lt;font size=&quot;3&quot;&gt;Additional revenue from value-added services such as grant review and editing.&lt;/font&gt;&lt;/li&gt;&lt;/ul&gt;&lt;/div&gt;&lt;/div&gt;&lt;div&gt;&lt;br&gt;&lt;/div&gt;" style="rounded=0;whiteSpace=wrap;html=1;shadow=0;labelBackgroundColor=none;strokeColor=#e8edf0;strokeWidth=5;fillColor=#ffffff;fontSize=12;fontColor=#2F5B7C;align=left;verticalAlign=top;spacing=30;" parent="RsTMZp-gRHyhhhqacSFY-1" vertex="1">
          <mxGeometry x="-1160" y="1120" width="1050" height="330" as="geometry" />
        </mxCell>
        <mxCell id="RsTMZp-gRHyhhhqacSFY-12" value="Service for Evaluating Requirements and providing AI-driven Ideas (SERAI)&lt;br&gt;&lt;font style=&quot;font-size: 36px;&quot;&gt;The Business Model Canvas&lt;/font&gt;" style="text;html=1;resizable=0;points=[];autosize=1;align=left;verticalAlign=top;spacingTop=-4;fontSize=60;fontColor=#2F5B7C;" parent="RsTMZp-gRHyhhhqacSFY-1" vertex="1">
          <mxGeometry x="-2210" y="85" width="2030" height="150" as="geometry" />
        </mxCell>
        <mxCell id="RsTMZp-gRHyhhhqacSFY-13" value="" style="html=1;verticalLabelPosition=bottom;labelBackgroundColor=#ffffff;verticalAlign=top;shadow=0;dashed=0;strokeWidth=4;shape=mxgraph.ios7.misc.check;strokeColor=#2F5B7C;fillColor=#ffffff;gradientColor=none;fontSize=12;fontColor=#2F5B7C;align=left;" parent="RsTMZp-gRHyhhhqacSFY-1" vertex="1">
          <mxGeometry x="-1410" y="252" width="20" height="16" as="geometry" />
        </mxCell>
        <mxCell id="RsTMZp-gRHyhhhqacSFY-14" value="" style="shape=mxgraph.signs.travel.present;html=1;fillColor=#2F5B7C;strokeColor=none;verticalLabelPosition=bottom;verticalAlign=top;align=center;shadow=0;labelBackgroundColor=none;fontSize=12;fontColor=#2F5B7C;" parent="RsTMZp-gRHyhhhqacSFY-1" vertex="1">
          <mxGeometry x="-1000" y="235" width="31" height="40" as="geometry" />
        </mxCell>
        <mxCell id="RsTMZp-gRHyhhhqacSFY-15" value="" style="html=1;verticalLabelPosition=bottom;labelBackgroundColor=#ffffff;verticalAlign=top;strokeWidth=3;strokeColor=none;fillColor=#2F5B7C;shadow=0;dashed=0;shape=mxgraph.ios7.icons.heart;fontSize=12;fontColor=#2F5B7C;align=left;" parent="RsTMZp-gRHyhhhqacSFY-1" vertex="1">
          <mxGeometry x="-594.9999999999997" y="242" width="41" height="36" as="geometry" />
        </mxCell>
        <mxCell id="RsTMZp-gRHyhhhqacSFY-19" value="" style="shadow=0;dashed=0;html=1;strokeColor=none;labelPosition=center;verticalLabelPosition=bottom;verticalAlign=top;shape=mxgraph.mscae.cloud.data_factory;fillColor=#2F5B7C;labelBackgroundColor=none;fontSize=10;fontColor=#2F5B7C;align=left;" parent="RsTMZp-gRHyhhhqacSFY-1" vertex="1">
          <mxGeometry x="-1440" y="690" width="50" height="50" as="geometry" />
        </mxCell>
        <mxCell id="RsTMZp-gRHyhhhqacSFY-20" value="" style="shape=mxgraph.signs.transportation.truck_6;html=1;fillColor=#2F5B7C;strokeColor=none;verticalLabelPosition=bottom;verticalAlign=top;align=center;shadow=0;labelBackgroundColor=none;fontSize=10;fontColor=#2F5B7C;aspect=fixed;" parent="RsTMZp-gRHyhhhqacSFY-1" vertex="1">
          <mxGeometry x="-590" y="690" width="40" height="50" as="geometry" />
        </mxCell>
        <mxCell id="RsTMZp-gRHyhhhqacSFY-21" value="" style="shape=image;html=1;verticalAlign=top;verticalLabelPosition=bottom;labelBackgroundColor=#ffffff;imageAspect=0;aspect=fixed;image=https://cdn4.iconfinder.com/data/icons/evil-icons-user-interface/64/price-128.png;shadow=0;strokeColor=#e8edf0;strokeWidth=3;fillColor=#2F5B7C;gradientColor=none;fontSize=10;fontColor=#2F5B7C;align=left;" parent="RsTMZp-gRHyhhhqacSFY-1" vertex="1">
          <mxGeometry x="-1226" y="1140" width="58" height="58" as="geometry" />
        </mxCell>
        <mxCell id="RsTMZp-gRHyhhhqacSFY-22" value="" style="dashed=0;html=1;shape=mxgraph.aws3.checklist_cost;fillColor=#2F5B7C;gradientColor=none;shadow=0;labelBackgroundColor=none;strokeColor=none;strokeWidth=3;fontSize=10;fontColor=#2F5B7C;align=left;" parent="RsTMZp-gRHyhhhqacSFY-1" vertex="1">
          <mxGeometry x="-203.5" y="1131.5" width="67.5" height="75" as="geometry" />
        </mxCell>
        <mxCell id="RsTMZp-gRHyhhhqacSFY-23" value="" style="shadow=0;dashed=0;html=1;strokeColor=none;fillColor=#2F5B7C;labelPosition=center;verticalLabelPosition=bottom;verticalAlign=top;outlineConnect=0;shape=mxgraph.office.concepts.link;labelBackgroundColor=none;fontSize=10;fontColor=#000000;align=left;" parent="RsTMZp-gRHyhhhqacSFY-1" vertex="1">
          <mxGeometry x="-1871" y="241" width="61" height="21" as="geometry" />
        </mxCell>
        <mxCell id="RsTMZp-gRHyhhhqacSFY-24" value="" style="group" parent="RsTMZp-gRHyhhhqacSFY-1" vertex="1" connectable="0">
          <mxGeometry x="-203.5" y="245" width="69" height="50" as="geometry" />
        </mxCell>
        <mxCell id="RsTMZp-gRHyhhhqacSFY-25" value="" style="shadow=0;dashed=0;html=1;strokeColor=#FFFFFF;labelPosition=center;verticalLabelPosition=bottom;verticalAlign=top;outlineConnect=0;shape=mxgraph.office.users.user;fillColor=#2F5B7C;labelBackgroundColor=none;fontSize=10;fontColor=#000000;align=left;strokeWidth=2;" parent="RsTMZp-gRHyhhhqacSFY-24" vertex="1">
          <mxGeometry x="31" y="-5" width="46" height="50" as="geometry" />
        </mxCell>
        <mxCell id="RsTMZp-gRHyhhhqacSFY-26" value="" style="shadow=0;dashed=0;html=1;strokeColor=#FFFFFF;labelPosition=center;verticalLabelPosition=bottom;verticalAlign=top;outlineConnect=0;shape=mxgraph.office.users.user;fillColor=#2F5B7C;labelBackgroundColor=none;fontSize=10;fontColor=#000000;align=left;strokeWidth=2;" parent="RsTMZp-gRHyhhhqacSFY-24" vertex="1">
          <mxGeometry width="46" height="50" as="geometry" />
        </mxCell>
        <mxCell id="RsTMZp-gRHyhhhqacSFY-27" value="www.businessmodelgeneration.com" style="text" parent="RsTMZp-gRHyhhhqacSFY-1" vertex="1">
          <mxGeometry x="-2170" y="1480" width="360" height="26" as="geometry" />
        </mxCell>
        <mxCell id="RsTMZp-gRHyhhhqacSFY-28" value="This work is licensed under the Creative Commons Attribution-Share Alike 3.0 Unported License. &#xa;To view a copy of this license, visit http://creativecommons.org/licenses/by-sa/3.0/ &#xa;or send a letter to Creative Commons, 171 Second Street, Suite 300, San Francisco, California, 94105, USA." style="text" parent="RsTMZp-gRHyhhhqacSFY-1" vertex="1">
          <mxGeometry x="-866.5" y="1477.5" width="740" height="57" as="geometry" />
        </mxCell>
      </root>
    </mxGraphModel>
  </diagram>
  <diagram id="07fea595-8f29-1299-0266-81d95cde20df" name="Template">
    <mxGraphModel dx="4652" dy="1124" grid="1" gridSize="10" guides="1" tooltips="1" connect="1" arrows="1" fold="1" page="1" pageScale="1" pageWidth="1169" pageHeight="827" background="none" math="0" shadow="0">
      <root>
        <mxCell id="0" />
        <mxCell id="1" parent="0" />
        <mxCell id="698" value="" style="rounded=0;whiteSpace=wrap;html=1;shadow=0;labelBackgroundColor=none;strokeColor=none;strokeWidth=3;fillColor=#e8edf0;fontSize=60;fontColor=#2F5B7C;align=left;" parent="1" vertex="1">
          <mxGeometry x="-2280" y="32" width="2250" height="1598" as="geometry" />
        </mxCell>
        <mxCell id="699" value="&lt;div style=&quot;font-size: 26px&quot;&gt;&lt;font style=&quot;font-size: 26px&quot;&gt;Customer Relationships&lt;/font&gt;&lt;/div&gt;&lt;div&gt;&lt;br&gt;&lt;/div&gt;&lt;div&gt;What type of relationship does each of our Customer&lt;/div&gt;&lt;div&gt;Segments expect us to establish and maintain with them?&lt;/div&gt;&lt;div&gt;Which ones have we established?&lt;/div&gt;&lt;div&gt;How are they integrated with the rest of our business model?&lt;/div&gt;&lt;div&gt;How costly are they?&lt;/div&gt;&lt;div&gt;&lt;br&gt;&lt;/div&gt;&lt;div style=&quot;font-size: 10px&quot;&gt;&lt;font style=&quot;font-size: 10px&quot;&gt;&lt;b&gt;Examples&lt;/b&gt;&lt;/font&gt;&lt;/div&gt;&lt;div style=&quot;font-size: 10px&quot;&gt;&lt;font style=&quot;font-size: 10px&quot;&gt;Personal assistance&lt;/font&gt;&lt;/div&gt;&lt;div style=&quot;font-size: 10px&quot;&gt;&lt;font style=&quot;font-size: 10px&quot;&gt;Dedicated Personal Assistance&lt;/font&gt;&lt;/div&gt;&lt;div style=&quot;font-size: 10px&quot;&gt;&lt;font style=&quot;font-size: 10px&quot;&gt;Self-Service&lt;/font&gt;&lt;/div&gt;&lt;div style=&quot;font-size: 10px&quot;&gt;&lt;font style=&quot;font-size: 10px&quot;&gt;Automated Services&lt;/font&gt;&lt;/div&gt;&lt;div style=&quot;font-size: 10px&quot;&gt;&lt;font style=&quot;font-size: 10px&quot;&gt;Communities&lt;/font&gt;&lt;/div&gt;&lt;div style=&quot;font-size: 10px&quot;&gt;&lt;font style=&quot;font-size: 10px&quot;&gt;Co-creation&lt;/font&gt;&lt;/div&gt;" style="rounded=0;whiteSpace=wrap;html=1;shadow=0;labelBackgroundColor=none;strokeColor=#e8edf0;strokeWidth=5;fillColor=#ffffff;fontSize=12;fontColor=#2F5B7C;align=left;verticalAlign=top;spacing=30;" parent="1" vertex="1">
          <mxGeometry x="-950" y="220" width="420" height="450" as="geometry" />
        </mxCell>
        <mxCell id="700" value="&lt;font&gt;&lt;font style=&quot;font-size: 26px&quot;&gt;Key Partners&lt;/font&gt;&lt;br&gt;&lt;/font&gt;&lt;font style=&quot;font-size: 12px&quot;&gt;&lt;br style=&quot;font-size: 12px&quot;&gt;&lt;font style=&quot;font-size: 12px&quot;&gt;Who are our Key Partners?&lt;br style=&quot;font-size: 12px&quot;&gt;Who are our Key Suppliers?&lt;br style=&quot;font-size: 12px&quot;&gt;Which Key Resources are we acquiring from partners?&lt;br style=&quot;font-size: 12px&quot;&gt;&lt;/font&gt;&lt;br style=&quot;font-size: 12px&quot;&gt;&lt;/font&gt;&lt;div style=&quot;font-size: 10px&quot;&gt;&lt;font style=&quot;font-size: 10px&quot;&gt;&lt;b&gt;Motivations for partnerships&lt;/b&gt;&lt;/font&gt;&lt;/div&gt;&lt;div style=&quot;font-size: 10px&quot;&gt;&lt;font style=&quot;font-size: 10px&quot;&gt;Optimization and economy&lt;/font&gt;&lt;/div&gt;&lt;div style=&quot;font-size: 10px&quot;&gt;&lt;font style=&quot;font-size: 10px&quot;&gt;Reduction of risk and uncertainty&lt;/font&gt;&lt;/div&gt;&lt;div style=&quot;font-size: 10px&quot;&gt;&lt;font style=&quot;font-size: 10px&quot;&gt;Acquisition of particular resources and activities&lt;/font&gt;&lt;/div&gt;&lt;div style=&quot;font-size: 12px&quot;&gt;&lt;br style=&quot;font-size: 12px&quot;&gt;&lt;/div&gt;" style="rounded=0;whiteSpace=wrap;html=1;shadow=0;labelBackgroundColor=none;strokeColor=#e8edf0;strokeWidth=5;fillColor=#ffffff;fontSize=12;fontColor=#2F5B7C;align=left;verticalAlign=top;spacing=30;" parent="1" vertex="1">
          <mxGeometry x="-2210" y="220" width="420" height="900" as="geometry" />
        </mxCell>
        <mxCell id="701" value="&lt;font&gt;&lt;font style=&quot;font-size: 26px&quot;&gt;Key Activities&lt;/font&gt;&lt;br style=&quot;font-size: 12px&quot;&gt;&lt;/font&gt;&lt;font&gt;&lt;br style=&quot;font-size: 12px&quot;&gt;&lt;div&gt;What Key Activities do our Value Propositions require?&lt;/div&gt;&lt;div&gt;Our Distribution Channels?&lt;/div&gt;&lt;div&gt;Customer Relationships?&lt;/div&gt;&lt;div&gt;Revenue streams?&lt;/div&gt;&lt;div&gt;&lt;br&gt;&lt;/div&gt;&lt;/font&gt;&lt;div style=&quot;font-size: 10px&quot;&gt;&lt;div&gt;&lt;b&gt;Categories&lt;/b&gt;&lt;/div&gt;&lt;div&gt;Production&lt;/div&gt;&lt;div&gt;Problem Solving&lt;/div&gt;&lt;div&gt;Platform/Network&lt;/div&gt;&lt;/div&gt;&lt;div&gt;&lt;br&gt;&lt;/div&gt;" style="rounded=0;whiteSpace=wrap;html=1;shadow=0;labelBackgroundColor=none;strokeColor=#e8edf0;strokeWidth=5;fillColor=#ffffff;fontSize=12;fontColor=#2F5B7C;align=left;verticalAlign=top;spacing=30;" parent="1" vertex="1">
          <mxGeometry x="-1790" y="220" width="420" height="450" as="geometry" />
        </mxCell>
        <mxCell id="702" value="&lt;div&gt;&lt;font style=&quot;font-size: 26px&quot;&gt;Key Resources&lt;/font&gt;&lt;/div&gt;&lt;div&gt;&lt;br&gt;&lt;/div&gt;&lt;div&gt;What Key Resources do our Value Propositions require?&lt;/div&gt;&lt;div&gt;Our Distribution Channels? Customer Relationships?&lt;/div&gt;&lt;div&gt;Revenue Streams?&lt;/div&gt;&lt;div&gt;&lt;br&gt;&lt;/div&gt;&lt;div style=&quot;font-size: 10px&quot;&gt;&lt;font style=&quot;font-size: 10px&quot;&gt;&lt;b&gt;Types of resources&lt;/b&gt;&lt;/font&gt;&lt;/div&gt;&lt;div style=&quot;font-size: 10px&quot;&gt;&lt;font style=&quot;font-size: 10px&quot;&gt;Physical&lt;/font&gt;&lt;/div&gt;&lt;div style=&quot;font-size: 10px&quot;&gt;&lt;font style=&quot;font-size: 10px&quot;&gt;Intellectual (brand patents, copyrights, data)&lt;/font&gt;&lt;/div&gt;&lt;div style=&quot;font-size: 10px&quot;&gt;&lt;font style=&quot;font-size: 10px&quot;&gt;Human&lt;/font&gt;&lt;/div&gt;&lt;div style=&quot;font-size: 10px&quot;&gt;&lt;font style=&quot;font-size: 10px&quot;&gt;Financial&lt;/font&gt;&lt;/div&gt;" style="rounded=0;whiteSpace=wrap;html=1;shadow=0;labelBackgroundColor=none;strokeColor=#e8edf0;strokeWidth=5;fillColor=#ffffff;fontSize=12;fontColor=#2F5B7C;align=left;verticalAlign=top;spacing=30;" parent="1" vertex="1">
          <mxGeometry x="-1790" y="670" width="420" height="450" as="geometry" />
        </mxCell>
        <mxCell id="703" value="&lt;div style=&quot;font-size: 26px&quot;&gt;&lt;font style=&quot;font-size: 26px&quot;&gt;Value Propositions&lt;/font&gt;&lt;/div&gt;&lt;div&gt;&lt;br&gt;&lt;/div&gt;&lt;div&gt;What value do we deliver to the customer?&lt;/div&gt;&lt;div&gt;Which one of our customer’s problems are we helping to solve?&lt;/div&gt;&lt;div&gt;What bundles of products and services are we offering to each Customer Segment?&lt;/div&gt;&lt;div&gt;Which customer needs are we satisfying?&lt;/div&gt;&lt;div&gt;&lt;br&gt;&lt;/div&gt;&lt;div style=&quot;font-size: 10px&quot;&gt;&lt;font style=&quot;font-size: 10px&quot;&gt;&lt;b&gt;Characteristics&lt;/b&gt;&lt;/font&gt;&lt;/div&gt;&lt;div style=&quot;font-size: 10px&quot;&gt;&lt;font style=&quot;font-size: 10px&quot;&gt;Newness&lt;/font&gt;&lt;/div&gt;&lt;div style=&quot;font-size: 10px&quot;&gt;&lt;font style=&quot;font-size: 10px&quot;&gt;Performance&lt;/font&gt;&lt;/div&gt;&lt;div style=&quot;font-size: 10px&quot;&gt;&lt;font style=&quot;font-size: 10px&quot;&gt;Customization&lt;/font&gt;&lt;/div&gt;&lt;div style=&quot;font-size: 10px&quot;&gt;&lt;font style=&quot;font-size: 10px&quot;&gt;“Getting the Job Done”&lt;/font&gt;&lt;/div&gt;&lt;div style=&quot;font-size: 10px&quot;&gt;&lt;font style=&quot;font-size: 10px&quot;&gt;Design&lt;/font&gt;&lt;/div&gt;&lt;div style=&quot;font-size: 10px&quot;&gt;&lt;font style=&quot;font-size: 10px&quot;&gt;Brand/Status&lt;/font&gt;&lt;/div&gt;&lt;div style=&quot;font-size: 10px&quot;&gt;&lt;font style=&quot;font-size: 10px&quot;&gt;Price&lt;/font&gt;&lt;/div&gt;&lt;div style=&quot;font-size: 10px&quot;&gt;&lt;font style=&quot;font-size: 10px&quot;&gt;Cost Reduction&lt;/font&gt;&lt;/div&gt;&lt;div style=&quot;font-size: 10px&quot;&gt;&lt;font style=&quot;font-size: 10px&quot;&gt;Risk Reduction&lt;/font&gt;&lt;/div&gt;&lt;div style=&quot;font-size: 10px&quot;&gt;&lt;font style=&quot;font-size: 10px&quot;&gt;Accessibility&lt;/font&gt;&lt;/div&gt;&lt;div style=&quot;font-size: 10px&quot;&gt;&lt;font style=&quot;font-size: 10px&quot;&gt;Convenience/Usability&lt;/font&gt;&lt;/div&gt;&lt;div style=&quot;font-size: 10px&quot;&gt;&lt;br&gt;&lt;/div&gt;" style="rounded=0;whiteSpace=wrap;html=1;shadow=0;labelBackgroundColor=none;strokeColor=#e8edf0;strokeWidth=5;fillColor=#ffffff;fontSize=12;fontColor=#2F5B7C;align=left;verticalAlign=top;spacing=30;" parent="1" vertex="1">
          <mxGeometry x="-1370" y="220" width="420" height="900" as="geometry" />
        </mxCell>
        <mxCell id="704" value="&lt;div&gt;&lt;font style=&quot;font-size: 26px&quot;&gt;Customer Segments&lt;/font&gt;&lt;/div&gt;&lt;div&gt;&lt;br&gt;&lt;/div&gt;&lt;div&gt;For whom are we creating value?&lt;/div&gt;&lt;div&gt;Who are our most important customers?&lt;/div&gt;&lt;div&gt;&lt;br&gt;&lt;/div&gt;&lt;div style=&quot;font-size: 10px&quot;&gt;&lt;font style=&quot;font-size: 10px&quot;&gt;Mass Market&lt;/font&gt;&lt;/div&gt;&lt;div style=&quot;font-size: 10px&quot;&gt;&lt;font style=&quot;font-size: 10px&quot;&gt;Niche Market&lt;/font&gt;&lt;/div&gt;&lt;div style=&quot;font-size: 10px&quot;&gt;&lt;font style=&quot;font-size: 10px&quot;&gt;Segmented&lt;/font&gt;&lt;/div&gt;&lt;div style=&quot;font-size: 10px&quot;&gt;&lt;font style=&quot;font-size: 10px&quot;&gt;Diversified&lt;/font&gt;&lt;/div&gt;&lt;div style=&quot;font-size: 10px&quot;&gt;&lt;font style=&quot;font-size: 10px&quot;&gt;Multi-sided Platform&lt;/font&gt;&lt;/div&gt;" style="rounded=0;whiteSpace=wrap;html=1;shadow=0;labelBackgroundColor=none;strokeColor=#e8edf0;strokeWidth=5;fillColor=#ffffff;fontSize=12;fontColor=#2F5B7C;align=left;verticalAlign=top;spacing=30;" parent="1" vertex="1">
          <mxGeometry x="-530" y="220" width="420" height="900" as="geometry" />
        </mxCell>
        <mxCell id="705" value="&lt;div&gt;&lt;font style=&quot;font-size: 26px&quot;&gt;Channels&lt;/font&gt;&lt;/div&gt;&lt;div&gt;&lt;br&gt;&lt;/div&gt;&lt;div&gt;Through which Channels do our Customer Segments&lt;/div&gt;&lt;div&gt;want to be reached?&lt;/div&gt;&lt;div&gt;How are we reaching them now?&lt;/div&gt;&lt;div&gt;How are our Channels integrated?&lt;/div&gt;&lt;div&gt;Which ones work best?&lt;/div&gt;&lt;div&gt;Which ones are most cost-efficient?&lt;/div&gt;&lt;div&gt;How are we integrating them with customer routines?&lt;/div&gt;&lt;div&gt;&lt;br&gt;&lt;/div&gt;&lt;div style=&quot;font-size: 10px&quot;&gt;&lt;font style=&quot;font-size: 10px&quot;&gt;&lt;b&gt;Channel phases&lt;/b&gt;&lt;/font&gt;&lt;/div&gt;&lt;div style=&quot;font-size: 10px&quot;&gt;&lt;font style=&quot;font-size: 10px&quot;&gt;1. Awareness&lt;/font&gt;&lt;/div&gt;&lt;div style=&quot;font-size: 10px&quot;&gt;&lt;font style=&quot;font-size: 10px&quot;&gt;&amp;nbsp; &amp;nbsp; How do we raise awareness about our company’s products and services?&lt;/font&gt;&lt;/div&gt;&lt;div style=&quot;font-size: 10px&quot;&gt;&lt;font style=&quot;font-size: 10px&quot;&gt;2. Evaluation&lt;/font&gt;&lt;/div&gt;&lt;div style=&quot;font-size: 10px&quot;&gt;&lt;font style=&quot;font-size: 10px&quot;&gt;&amp;nbsp; &amp;nbsp; How do we help customers evaluate our organization’s Value Proposition?&lt;/font&gt;&lt;/div&gt;&lt;div style=&quot;font-size: 10px&quot;&gt;&lt;font style=&quot;font-size: 10px&quot;&gt;3. Purchase&lt;/font&gt;&lt;/div&gt;&lt;div style=&quot;font-size: 10px&quot;&gt;&lt;font style=&quot;font-size: 10px&quot;&gt;&amp;nbsp; &amp;nbsp; How do we allow customers to purchase specific products and services?&lt;/font&gt;&lt;/div&gt;&lt;div style=&quot;font-size: 10px&quot;&gt;&lt;font style=&quot;font-size: 10px&quot;&gt;4. Delivery&lt;/font&gt;&lt;/div&gt;&lt;div style=&quot;font-size: 10px&quot;&gt;&lt;font style=&quot;font-size: 10px&quot;&gt;&amp;nbsp; &amp;nbsp; How do we deliver a Value Proposition to customers?&lt;/font&gt;&lt;/div&gt;&lt;div style=&quot;font-size: 10px&quot;&gt;&lt;font style=&quot;font-size: 10px&quot;&gt;5. After sales&lt;/font&gt;&lt;/div&gt;&lt;div style=&quot;font-size: 10px&quot;&gt;&lt;font style=&quot;font-size: 10px&quot;&gt;&amp;nbsp; &amp;nbsp; How do we provide post-purchase customer support?&lt;/font&gt;&lt;/div&gt;&lt;div style=&quot;font-size: 10px&quot;&gt;&lt;br&gt;&lt;/div&gt;" style="rounded=0;whiteSpace=wrap;html=1;shadow=0;labelBackgroundColor=none;strokeColor=#e8edf0;strokeWidth=5;fillColor=#ffffff;fontSize=12;fontColor=#2F5B7C;align=left;verticalAlign=top;spacing=30;" parent="1" vertex="1">
          <mxGeometry x="-950" y="670" width="420" height="450" as="geometry" />
        </mxCell>
        <mxCell id="706" value="&lt;div style=&quot;font-size: 26px&quot;&gt;&lt;font style=&quot;font-size: 26px&quot;&gt;Cost Structure&lt;/font&gt;&lt;/div&gt;&lt;div&gt;&lt;br&gt;&lt;/div&gt;&lt;div&gt;What are the most important costs inherent in our business model?&lt;/div&gt;&lt;div&gt;Which Key Resources are most expensive?&lt;/div&gt;&lt;div&gt;Which Key Activities are most expensive?&lt;/div&gt;&lt;div&gt;&lt;br&gt;&lt;/div&gt;&lt;div style=&quot;font-size: 10px&quot;&gt;&lt;font style=&quot;font-size: 10px&quot;&gt;&lt;b&gt;Is your business more&lt;/b&gt;&lt;/font&gt;&lt;/div&gt;&lt;div style=&quot;font-size: 10px&quot;&gt;&lt;font style=&quot;font-size: 10px&quot;&gt;Cost Driven (leanest cost structure, low price value proposition, maximum automation, extensive outsourcing)&lt;/font&gt;&lt;/div&gt;&lt;div style=&quot;font-size: 10px&quot;&gt;&lt;font style=&quot;font-size: 10px&quot;&gt;Value Driven ( focused on value creation, premium value proposition)&lt;/font&gt;&lt;/div&gt;&lt;div style=&quot;font-size: 10px&quot;&gt;&lt;font style=&quot;font-size: 10px&quot;&gt;&lt;br&gt;&lt;/font&gt;&lt;/div&gt;&lt;div style=&quot;font-size: 10px&quot;&gt;&lt;font style=&quot;font-size: 10px&quot;&gt;&lt;b&gt;Sample characteristics&lt;/b&gt;&lt;/font&gt;&lt;/div&gt;&lt;div style=&quot;font-size: 10px&quot;&gt;&lt;font style=&quot;font-size: 10px&quot;&gt;Fixed Costs (salaries, rents, utilities)&lt;/font&gt;&lt;/div&gt;&lt;div style=&quot;font-size: 10px&quot;&gt;&lt;font style=&quot;font-size: 10px&quot;&gt;Variable costs&lt;/font&gt;&lt;/div&gt;&lt;div style=&quot;font-size: 10px&quot;&gt;&lt;font style=&quot;font-size: 10px&quot;&gt;Economies of scale&lt;/font&gt;&lt;/div&gt;&lt;div style=&quot;font-size: 10px&quot;&gt;&lt;font style=&quot;font-size: 10px&quot;&gt;Economies of scope&lt;/font&gt;&lt;/div&gt;" style="rounded=0;whiteSpace=wrap;html=1;shadow=0;labelBackgroundColor=none;strokeColor=#e8edf0;strokeWidth=5;fillColor=#ffffff;fontSize=12;fontColor=#2F5B7C;align=left;verticalAlign=top;spacing=30;" parent="1" vertex="1">
          <mxGeometry x="-2210" y="1120" width="1050" height="330" as="geometry" />
        </mxCell>
        <mxCell id="707" value="&lt;div style=&quot;font-size: 26px&quot;&gt;&lt;font style=&quot;font-size: 26px&quot;&gt;Revenue Streams&lt;/font&gt;&lt;/div&gt;&lt;div&gt;&lt;br&gt;&lt;/div&gt;&lt;div&gt;For what value are our customers really willing to pay?&lt;/div&gt;&lt;div&gt;For what do they currently pay?&lt;/div&gt;&lt;div&gt;How are they currently paying?&lt;/div&gt;&lt;div&gt;How would they prefer to pay?&lt;/div&gt;&lt;div&gt;How much does each Revenue Stream contribute to overall revenues?&lt;/div&gt;" style="rounded=0;whiteSpace=wrap;html=1;shadow=0;labelBackgroundColor=none;strokeColor=#e8edf0;strokeWidth=5;fillColor=#ffffff;fontSize=12;fontColor=#2F5B7C;align=left;verticalAlign=top;spacing=30;" parent="1" vertex="1">
          <mxGeometry x="-1160" y="1120" width="1050" height="330" as="geometry" />
        </mxCell>
        <mxCell id="708" value="The Business Model Canvas&lt;br&gt;" style="text;html=1;resizable=0;points=[];autosize=1;align=left;verticalAlign=top;spacingTop=-4;fontSize=60;fontColor=#2F5B7C;" parent="1" vertex="1">
          <mxGeometry x="-2210" y="110" width="780" height="70" as="geometry" />
        </mxCell>
        <mxCell id="709" value="" style="html=1;verticalLabelPosition=bottom;labelBackgroundColor=#ffffff;verticalAlign=top;shadow=0;dashed=0;strokeWidth=4;shape=mxgraph.ios7.misc.check;strokeColor=#2F5B7C;fillColor=#ffffff;gradientColor=none;fontSize=12;fontColor=#2F5B7C;align=left;" parent="1" vertex="1">
          <mxGeometry x="-1410" y="252" width="20" height="16" as="geometry" />
        </mxCell>
        <mxCell id="710" value="" style="shape=mxgraph.signs.travel.present;html=1;fillColor=#2F5B7C;strokeColor=none;verticalLabelPosition=bottom;verticalAlign=top;align=center;shadow=0;labelBackgroundColor=none;fontSize=12;fontColor=#2F5B7C;" parent="1" vertex="1">
          <mxGeometry x="-1000" y="235" width="31" height="40" as="geometry" />
        </mxCell>
        <mxCell id="711" value="" style="html=1;verticalLabelPosition=bottom;labelBackgroundColor=#ffffff;verticalAlign=top;strokeWidth=3;strokeColor=none;fillColor=#2F5B7C;shadow=0;dashed=0;shape=mxgraph.ios7.icons.heart;fontSize=12;fontColor=#2F5B7C;align=left;" parent="1" vertex="1">
          <mxGeometry x="-594.9999999999997" y="242" width="41" height="36" as="geometry" />
        </mxCell>
        <mxCell id="712" value="&lt;div style=&quot;font-size: 10px&quot;&gt;&lt;b&gt;Dynamic pricing&lt;/b&gt;&lt;/div&gt;&lt;div style=&quot;font-size: 10px&quot;&gt;Negotiation( bargaining)&lt;/div&gt;&lt;div style=&quot;font-size: 10px&quot;&gt;Yield Management&lt;/div&gt;&lt;div style=&quot;font-size: 10px&quot;&gt;Real-time-Market&lt;/div&gt;" style="text;html=1;resizable=0;points=[];autosize=1;align=left;verticalAlign=top;spacingTop=-4;fontSize=10;fontColor=#2F5B7C;" parent="1" vertex="1">
          <mxGeometry x="-805.5" y="1286" width="120" height="50" as="geometry" />
        </mxCell>
        <mxCell id="713" value="&lt;div style=&quot;font-size: 10px&quot;&gt;&lt;b&gt;Fixed pricing&lt;/b&gt;&lt;/div&gt;&lt;div style=&quot;font-size: 10px&quot;&gt;List Price&lt;/div&gt;&lt;div style=&quot;font-size: 10px&quot;&gt;Product feature dependent&lt;/div&gt;&lt;div style=&quot;font-size: 10px&quot;&gt;Customer segment dependent&lt;/div&gt;&lt;div style=&quot;font-size: 10px&quot;&gt;Volume dependent&lt;/div&gt;" style="text;html=1;resizable=0;points=[];autosize=1;align=left;verticalAlign=top;spacingTop=-4;fontSize=10;fontColor=#2F5B7C;" parent="1" vertex="1">
          <mxGeometry x="-984.5" y="1286" width="150" height="60" as="geometry" />
        </mxCell>
        <mxCell id="714" value="&lt;div style=&quot;font-size: 10px&quot;&gt;&lt;b&gt;Types&lt;/b&gt;&lt;/div&gt;&lt;div style=&quot;font-size: 10px&quot;&gt;Asset sale&lt;/div&gt;&lt;div style=&quot;font-size: 10px&quot;&gt;Usage fee&lt;/div&gt;&lt;div style=&quot;font-size: 10px&quot;&gt;Subscription Fees&lt;/div&gt;&lt;div style=&quot;font-size: 10px&quot;&gt;Lending/Renting/Leasing&lt;/div&gt;&lt;div style=&quot;font-size: 10px&quot;&gt;Licensing&lt;/div&gt;&lt;div style=&quot;font-size: 10px&quot;&gt;Brokerage fees&lt;/div&gt;&lt;div style=&quot;font-size: 10px&quot;&gt;Advertising&lt;/div&gt;" style="text;html=1;resizable=0;points=[];autosize=1;align=left;verticalAlign=top;spacingTop=-4;fontSize=10;fontColor=#2F5B7C;" parent="1" vertex="1">
          <mxGeometry x="-1130" y="1286" width="130" height="100" as="geometry" />
        </mxCell>
        <mxCell id="715" value="" style="shadow=0;dashed=0;html=1;strokeColor=none;labelPosition=center;verticalLabelPosition=bottom;verticalAlign=top;shape=mxgraph.mscae.cloud.data_factory;fillColor=#2F5B7C;labelBackgroundColor=none;fontSize=10;fontColor=#2F5B7C;align=left;" parent="1" vertex="1">
          <mxGeometry x="-1440" y="690" width="50" height="50" as="geometry" />
        </mxCell>
        <mxCell id="716" value="" style="shape=mxgraph.signs.transportation.truck_6;html=1;fillColor=#2F5B7C;strokeColor=none;verticalLabelPosition=bottom;verticalAlign=top;align=center;shadow=0;labelBackgroundColor=none;fontSize=10;fontColor=#2F5B7C;aspect=fixed;" parent="1" vertex="1">
          <mxGeometry x="-590" y="690" width="40" height="50" as="geometry" />
        </mxCell>
        <mxCell id="717" value="" style="shape=image;html=1;verticalAlign=top;verticalLabelPosition=bottom;labelBackgroundColor=#ffffff;imageAspect=0;aspect=fixed;image=https://cdn4.iconfinder.com/data/icons/evil-icons-user-interface/64/price-128.png;shadow=0;strokeColor=#e8edf0;strokeWidth=3;fillColor=#2F5B7C;gradientColor=none;fontSize=10;fontColor=#2F5B7C;align=left;" parent="1" vertex="1">
          <mxGeometry x="-1226" y="1140" width="58" height="58" as="geometry" />
        </mxCell>
        <mxCell id="718" value="" style="dashed=0;html=1;shape=mxgraph.aws3.checklist_cost;fillColor=#2F5B7C;gradientColor=none;shadow=0;labelBackgroundColor=none;strokeColor=none;strokeWidth=3;fontSize=10;fontColor=#2F5B7C;align=left;" parent="1" vertex="1">
          <mxGeometry x="-203.5" y="1131.5" width="67.5" height="75" as="geometry" />
        </mxCell>
        <mxCell id="719" value="" style="shadow=0;dashed=0;html=1;strokeColor=none;fillColor=#2F5B7C;labelPosition=center;verticalLabelPosition=bottom;verticalAlign=top;outlineConnect=0;shape=mxgraph.office.concepts.link;labelBackgroundColor=none;fontSize=10;fontColor=#000000;align=left;" parent="1" vertex="1">
          <mxGeometry x="-1871" y="241" width="61" height="21" as="geometry" />
        </mxCell>
        <mxCell id="720" value="" style="group" parent="1" vertex="1" connectable="0">
          <mxGeometry x="-203.5" y="245" width="69" height="50" as="geometry" />
        </mxCell>
        <mxCell id="721" value="" style="shadow=0;dashed=0;html=1;strokeColor=#FFFFFF;labelPosition=center;verticalLabelPosition=bottom;verticalAlign=top;outlineConnect=0;shape=mxgraph.office.users.user;fillColor=#2F5B7C;labelBackgroundColor=none;fontSize=10;fontColor=#000000;align=left;strokeWidth=2;" parent="720" vertex="1">
          <mxGeometry x="31" y="-5" width="46" height="50" as="geometry" />
        </mxCell>
        <mxCell id="722" value="" style="shadow=0;dashed=0;html=1;strokeColor=#FFFFFF;labelPosition=center;verticalLabelPosition=bottom;verticalAlign=top;outlineConnect=0;shape=mxgraph.office.users.user;fillColor=#2F5B7C;labelBackgroundColor=none;fontSize=10;fontColor=#000000;align=left;strokeWidth=2;" parent="720" vertex="1">
          <mxGeometry width="46" height="50" as="geometry" />
        </mxCell>
        <mxCell id="jZ84a95Wsy1RApubU1WM-722" value="www.businessmodelgeneration.com" style="text" parent="1" vertex="1">
          <mxGeometry x="-2170" y="1480" width="360" height="26" as="geometry" />
        </mxCell>
        <mxCell id="jZ84a95Wsy1RApubU1WM-723" value="This work is licensed under the Creative Commons Attribution-Share Alike 3.0 Unported License. &#xa;To view a copy of this license, visit http://creativecommons.org/licenses/by-sa/3.0/ &#xa;or send a letter to Creative Commons, 171 Second Street, Suite 300, San Francisco, California, 94105, USA." style="text" parent="1" vertex="1">
          <mxGeometry x="-866.5" y="1477.5" width="740" height="57" as="geometry" />
        </mxCell>
      </root>
    </mxGraphModel>
  </diagram>
</mxfile>
